<svg id="Calque_1" data-name="Calque 1" xmlns="http://www.w3.org/2000/svg" viewBox="0 0 65 340.1"><defs><style>.cls-1{fill:#4ec2f0;}.cls-2{fill:none;stroke:#1d1d1b;stroke-miterlimit:10;stroke-width:3px;}</style></defs><title>logo couleurPlan de travail 1</title><g id="Calque_2" data-name="Calque 2"><g id="Calque_1-2" data-name="Calque 1-2"><circle cx="32.5" cy="307.6" r="32.5"/><path class="cls-1" d="M48,291.5a2.69,2.69,0,0,0-2.7-2.7h0a2.69,2.69,0,0,0-2.7,2.7v17.7a2.38,2.38,0,0,1-1.6,2.2,2.45,2.45,0,0,1-2.5-.9L22,289.8a2.75,2.75,0,0,0-3.4-.7,2.69,2.69,0,0,0-1.4,2.4v32A2.67,2.67,0,0,0,20,326h0a2.75,2.75,0,0,0,2.5-2.8V305.6a2.24,2.24,0,0,1,2.3-2.2,2.14,2.14,0,0,1,1.7.8L43,325a2.78,2.78,0,0,0,3.6.6,2.94,2.94,0,0,0,1.2-2.3V296.5a1.27,1.27,0,0,1,.1-.6Z"/><line class="cls-2" x1="32.3" y1="275.4" x2="34.4" y2="-810"/></g></g></svg>