<svg xmlns="http://www.w3.org/2000/svg" viewBox="0 0 62.53 63.21"><defs><style>.cls-1{fill:#eace2b;}</style></defs><title>Fichier 9</title><g id="Calque_2" data-name="Calque 2"><g id="Calque_1-2" data-name="Calque 1"><path class="cls-1" d="M58.19,32.56,40.25,1.87a3.78,3.78,0,1,0-6.52,3.81L51.67,36.37a3.78,3.78,0,1,0,6.52-3.81Z"/><path class="cls-1" d="M31,8.57l-.42.87A40.57,40.57,0,0,1,17.36,24.71l9.76,16.7a40.42,40.42,0,0,1,19.75-4.17l1,.06Z"/><path class="cls-1" d="M14.22,26.82,2.81,33.49a5.65,5.65,0,0,0-2,7.75l3.81,6.52a5.67,5.67,0,0,0,7.75,2l11.41-6.67ZM11.79,41.36A1.89,1.89,0,1,1,9.88,38.1l3.26-1.9a1.89,1.89,0,0,1,1.91,3.26Z"/><path class="cls-1" d="M28.75,55.13l3.14-1.84a5.65,5.65,0,0,0,2-7.74l-1.36-2.34A35.94,35.94,0,0,0,29,44.67l1.63,2.78A1.88,1.88,0,0,1,30,50L26.79,51.9,24,47.33,17.5,51.14l6.19,10.2a3.78,3.78,0,0,0,6.52-3.81Z"/><path class="cls-1" d="M50.34,2.84A1.89,1.89,0,0,0,48,4.19l-1,3.65a1.89,1.89,0,0,0,3.65,1l1-3.66A1.88,1.88,0,0,0,50.34,2.84Z"/><path class="cls-1" d="M61.12,21.28l-3.65-1a1.89,1.89,0,1,0-1,3.66l3.65.95a1.89,1.89,0,1,0,1-3.65Z"/><path class="cls-1" d="M61.49,10.24a1.88,1.88,0,0,0-2.58-.68l-4.61,2.7a1.89,1.89,0,1,0,1.9,3.26l4.61-2.7A1.88,1.88,0,0,0,61.49,10.24Z"/></g></g></svg>