<svg xmlns="http://www.w3.org/2000/svg" xmlns:xlink="http://www.w3.org/1999/xlink" viewBox="0 0 308.53 99.7"><defs><style>.cls-1{fill:url(#Dégradé_sans_nom_4);}.cls-2{fill:url(#Dégradé_sans_nom_4-2);}.cls-3{fill:url(#Dégradé_sans_nom_4-3);}.cls-4{fill:url(#Dégradé_sans_nom_4-4);}</style><linearGradient id="Dégradé_sans_nom_4" y1="361.36" x2="149.7" y2="361.36" gradientTransform="matrix(1, 0, 0, -1, 0, 411.22)" gradientUnits="userSpaceOnUse"><stop offset="0" stop-color="#4bc1f0"/><stop offset="0.5" stop-color="#219fda"/><stop offset="1" stop-color="#148bcc"/></linearGradient><linearGradient id="Dégradé_sans_nom_4-2" x1="89.42" y1="363.08" x2="131.41" y2="363.08" xlink:href="#Dégradé_sans_nom_4"/><linearGradient id="Dégradé_sans_nom_4-3" x1="89.43" y1="320.38" x2="149.69" y2="320.38" xlink:href="#Dégradé_sans_nom_4"/><linearGradient id="Dégradé_sans_nom_4-4" x1="141.15" y1="361.37" x2="308.53" y2="361.37" xlink:href="#Dégradé_sans_nom_4"/></defs><title>Fichier 1</title><g id="Calque_2" data-name="Calque 2"><g id="Calque_1-2" data-name="Calque 1"><g id="Calque_2-2" data-name="Calque 2"><g id="Calque_1-2-2" data-name="Calque 1-2"><path class="cls-1" d="M74.85,99.69A7.13,7.13,0,0,1,69.27,97L25.08,41.23A6.06,6.06,0,0,0,14.26,45V92.29a7.31,7.31,0,0,1-6.69,7.39A7.13,7.13,0,0,1,0,93q0-.22,0-.44V7.4A7.36,7.36,0,0,1,3.73.89a7.13,7.13,0,0,1,9,1.84L56.91,58.47A6.06,6.06,0,0,0,67.72,54.7V7.19A7.16,7.16,0,0,1,74.88,0h67.42a7.31,7.31,0,0,1,7.38,6.69A7.13,7.13,0,0,1,143,14.27H88A6.06,6.06,0,0,0,82,20.34v72a7.28,7.28,0,0,1-3.14,6.11A7.2,7.2,0,0,1,74.85,99.69Z"/><path class="cls-2" d="M124.28,55.26H96.55a7.13,7.13,0,0,1,0-14.26h27.73a7.13,7.13,0,0,1,0,14.26Z"/><path class="cls-3" d="M142.56,98h-46a7.13,7.13,0,0,1,0-14.26h46a7.13,7.13,0,0,1,0,14.26Z"/><path class="cls-4" d="M301,0a7.29,7.29,0,0,0-6.65,7.36V54.7a6.06,6.06,0,0,1-10.81,3.78L239.31,2.74a7.13,7.13,0,0,0-9-1.82,7.33,7.33,0,0,0-3.69,6.47V49.87a35.54,35.54,0,1,1-21.73-32.79,7.13,7.13,0,0,0,5.92-13l-.38-.16a49.84,49.84,0,1,0,30.43,45.91V45a6.06,6.06,0,0,1,10.78-3.76L295.82,97a7.13,7.13,0,0,0,9.1,1.78,7.3,7.3,0,0,0,3.62-6.42V7.16A7.13,7.13,0,0,0,301.42,0Z"/></g></g></g><g id="Calque_2-3" data-name="Calque 2"><g id="Calque_2-4" data-name="Calque 2"><g id="Calque_1-2-3" data-name="Calque 1-2"><path class="cls-1" d="M74.85,99.69A7.13,7.13,0,0,1,69.27,97L25.08,41.23A6.06,6.06,0,0,0,14.26,45V92.29a7.31,7.31,0,0,1-6.69,7.39A7.13,7.13,0,0,1,0,93q0-.22,0-.44V7.4A7.36,7.36,0,0,1,3.73.89a7.13,7.13,0,0,1,9,1.84L56.91,58.47A6.06,6.06,0,0,0,67.72,54.7V7.19A7.16,7.16,0,0,1,74.88,0h67.42a7.31,7.31,0,0,1,7.38,6.69A7.13,7.13,0,0,1,143,14.27H88A6.06,6.06,0,0,0,82,20.34v72a7.28,7.28,0,0,1-3.14,6.11A7.2,7.2,0,0,1,74.85,99.69Z"/><path class="cls-2" d="M124.28,55.26H96.55a7.13,7.13,0,0,1,0-14.26h27.73a7.13,7.13,0,0,1,0,14.26Z"/><path class="cls-3" d="M142.56,98h-46a7.13,7.13,0,0,1,0-14.26h46a7.13,7.13,0,0,1,0,14.26Z"/><path class="cls-4" d="M301,0a7.29,7.29,0,0,0-6.65,7.36V54.7a6.06,6.06,0,0,1-10.81,3.78L239.31,2.74a7.13,7.13,0,0,0-9-1.82,7.33,7.33,0,0,0-3.69,6.47V49.87a35.54,35.54,0,1,1-21.73-32.79,7.13,7.13,0,0,0,5.92-13l-.38-.16a49.84,49.84,0,1,0,30.43,45.91V45a6.06,6.06,0,0,1,10.78-3.76L295.82,97a7.13,7.13,0,0,0,9.1,1.78,7.3,7.3,0,0,0,3.62-6.42V7.16A7.13,7.13,0,0,0,301.42,0Z"/></g></g></g></g></svg>