<svg xmlns="http://www.w3.org/2000/svg" viewBox="0 0 65.04 65.04"><defs><style>.cls-1{fill:#fff;}</style></defs><title>Fichier 3</title><g id="Calque_2" data-name="Calque 2"><g id="Calque_1-2" data-name="Calque 1"><circle class="cls-1" cx="32.52" cy="32.52" r="32.52"/><path d="M48,13.7H45.3a2.68,2.68,0,0,0-2.67,2.67V34.09a2.26,2.26,0,0,1-4,1.41L22.12,14.71A2.68,2.68,0,0,0,18.76,14a2.77,2.77,0,0,0-1.39,2.43V48.22c0,.05,0,.11,0,.16a2.66,2.66,0,0,0,2.82,2.49,2.73,2.73,0,0,0,2.49-2.76V30.48a2.26,2.26,0,0,1,4-1.41L43.21,49.86a2.68,2.68,0,0,0,2.08,1A2.7,2.7,0,0,0,48,48.13V21.28a2.12,2.12,0,0,1,.07-.57Z"/></g></g></svg>