<svg xmlns="http://www.w3.org/2000/svg" viewBox="0 0 417.49 134.91"><defs><style>.cls-1{fill:#fff;}</style></defs><title>Fichier 4</title><g id="Calque_2" data-name="Calque 2"><g id="Calque_1-2" data-name="Calque 1"><g id="Calque_2-2" data-name="Calque 2"><g id="Calque_1-2-2" data-name="Calque 1-2"><path class="cls-1" d="M101.28,134.9a9.67,9.67,0,0,1-7.55-3.69L33.93,55.79a8.2,8.2,0,0,0-14.64,5.13v64a9.89,9.89,0,0,1-9,10,9.64,9.64,0,0,1-10.22-9c0-.2,0-.4,0-.6V10A10,10,0,0,1,5.05,1.2,9.66,9.66,0,0,1,17.21,3.69L77,79.12A8.2,8.2,0,0,0,91.63,74V9.73A9.69,9.69,0,0,1,101.32,0h91.24a9.89,9.89,0,0,1,10,9,9.65,9.65,0,0,1-9,10.23l-.61,0H119.14a8.2,8.2,0,0,0-8.2,8.2v97.41a9.73,9.73,0,0,1-9.66,10Z"/><path class="cls-1" d="M168.17,74.78H130.65a9.65,9.65,0,1,1,0-19.29h37.52a9.65,9.65,0,0,1,0,19.29Z"/><path class="cls-1" d="M192.91,132.56H130.66a9.65,9.65,0,1,1,0-19.29h62.25a9.65,9.65,0,0,1,0,19.29Z"/><path class="cls-1" d="M407.25,0a9.87,9.87,0,0,0-9,10V74a8.2,8.2,0,0,1-14.63,5.11L323.82,3.7a9.66,9.66,0,0,0-12.2-2.46,9.93,9.93,0,0,0-5,8.75V67.48a48.08,48.08,0,1,1-29.39-44.37,9.64,9.64,0,0,0,8-17.55l-.51-.22A67.42,67.42,0,1,0,325.9,67.47V60.91a8.19,8.19,0,0,1,14.58-5.09l59.8,75.42a9.64,9.64,0,0,0,12.31,2.41,9.87,9.87,0,0,0,4.9-8.68V9.68A9.65,9.65,0,0,0,407.86,0C407.66,0,407.46,0,407.25,0Z"/></g></g></g></g></svg>